PathFileType	4	(X/Y/Z)	32_2_79_p0_0-170_filt_butterworth.trc
DataRate	CameraRate	NumFrames	NumMarkers	Units	OrigDataRate	OrigDataStartFrame	OrigNumFrames
59.0	59.0	5	27	m	59.0	63	170
Frame#	Time	RHip			RKnee			RAnkle			RBigToe			RSmallToe			RHeel			LHip			LKnee			LAnkle			LBigToe			LSmallToe			LHeel			Neck			Head			Nose			RShoulder			RElbow			RWrist			RThumb			RIndex			RPinky			LShoulder			LElbow			LWrist			LThumb			LIndex			LPinky			
		X1	Y1	Z1	X2	Y2	Z2	X3	Y3	Z3	X4	Y4	Z4	X5	Y5	Z5	X6	Y6	Z6	X7	Y7	Z7	X8	Y8	Z8	X9	Y9	Z9	X10	Y10	Z10	X11	Y11	Z11	X12	Y12	Z12	X13	Y13	Z13	X14	Y14	Z14	X15	Y15	Z15	X16	Y16	Z16	X17	Y17	Z17	X18	Y18	Z18	X19	Y19	Z19	X20	Y20	Z20	X21	Y21	Z21	X22	Y22	Z22	X23	Y23	Z23	X24	Y24	Z24	X25	Y25	Z25	X26	Y26	Z26	X27	Y27	Z27	
63	1.0677966101694916	0.3421841863998811	0.4755197054817607	1.0674241513692253	0.32045936723337454	0.4808540135541619	1.474889676645451	0.31479012240959753	0.48293204364758935	1.8912023862773584	0.30691703518623636	0.33270687421595324	1.9098405689587887	0.3724045216110862	0.344836936747137	1.9129081940354558	0.2975103681528114	0.5770222974098881	1.9890797797583673	0.14864765430005766	0.463459956946541	1.071936867786293	0.14145448347841735	0.5140847132947118	1.4961116952166476	0.15343710544045963	0.5243615314396204	1.9301610026186693	0.15812583638318256	0.3451276307629784	1.9165598517023157	0.09968532574343222	0.3955082729934727	1.9313290206563793	0.16457971601551424	0.548728154116042	1.9782663901304787	0.23805561352396243	0.4440233184393985	0.4825167518749516	0.22412921341922157	0.4170116339593527	0.2457761088946028	0.21533198535241077	0.3633047717821504	0.3581830329348472	0.3911322794727656	0.43413846905331616	0.5636400048610013	0.4582886521160999	0.42688952596581475	0.7883886704195487	0.4225278628490401	0.20724175695727412	0.8933428794072532	0.413370939093179	-0.009749817888427645	0.9120833349788082	0.41806230142703993	-0.004260799081386494	0.9269493083529684	0.4436981962889036	0.15104836617013725	0.9814385065117334	0.07512133145376812	0.4401575187328721	0.5622320576926068	0.03022462916585474	0.4618738325582321	0.8068694642118732	0.07033887416119267	0.22858585006178278	0.8815074536005815	0.0848853682692947	0.07582392932210517	0.9149509128098284	0.08359087517972882	0.06684085949730059	0.9180958726105428	0.042087720986992885	0.17761638709875555	0.9491283689803234
64	1.0847457627118644	0.3422960985051722	0.4604201212021311	1.0593349026546206	0.3201451185551521	0.4813718314247385	1.4725177133776033	0.31508936966130036	0.4842829451302517	1.8921165204737376	0.30666600876721317	0.332160215698275	1.9085645449368984	0.3723882705874624	0.34482569978939126	1.9129126718234035	0.2974294597887558	0.5836732206055075	1.9954372712152157	0.14446679946075622	0.4647062476407892	1.0695925572795857	0.1417692696488942	0.5171051414065083	1.4898999912133195	0.15341397315431665	0.5244366897710018	1.93029715750871	0.15805318898639245	0.34501284269960364	1.9164870004072911	0.09969860407893816	0.39541835414115456	1.9315912200123222	0.16436205273502233	0.5490245478653895	1.9783201632829082	0.23801205251895527	0.4440749363049616	0.48218322016365683	0.22426687200870216	0.4170378842825508	0.24565910442159544	0.2152038939131194	0.3632694530868426	0.35702082330471147	0.3911719450737207	0.4342454042771995	0.5627865283736343	0.4583164749873331	0.4269240546673575	0.7855706424358411	0.4239441986356879	0.20359546129550904	0.8845178315642626	0.4140088810282177	-0.01129030198239575	0.9021937005800174	0.4201103425637452	-0.00526412378578478	0.9220688471859027	0.4427421049162923	0.15183234606764737	0.9736957833799156	0.07504754867034215	0.4401488560478377	0.5603299136727191	0.029857069499938712	0.4612793210582704	0.8060940880075459	0.06995829264928183	0.22765337101088273	0.8779284870661128	0.08417909881926997	0.07533197789000291	0.909476894151727	0.08256877962731993	0.06696655589027387	0.9130093787494135	0.03978330005677299	0.1728249654889657	0.9389887318010887
65	1.1016949152542372	0.34261296943520897	0.4464968984333213	1.0515875290755317	0.3206065590115382	0.48392545040969537	1.4717291181512304	0.31599596763486554	0.4876390062258022	1.8943592758682124	0.3065602639090842	0.33194481466318654	1.907752377426606	0.3723870080451391	0.3448571671476281	1.912921090163739	0.29779101629976035	0.5880239091752665	2.0010607580400515	0.14124884950770714	0.47133052693644545	1.0701577918863772	0.14138399707243657	0.5182315226390695	1.484982701868934	0.15339891351993887	0.524556729783005	1.9303974359895328	0.15799111080629707	0.3449991511395291	1.9165160720598164	0.09971185087323993	0.39539860541273586	1.931785377834024	0.16405708404827196	0.5502346302018487	1.9777988690120538	0.23801046386332636	0.44410079905541006	0.4822504565242925	0.22432484243659645	0.4171369778391661	0.24569817535031646	0.21517158434357042	0.3633611657657402	0.356343685873158	0.3911247122588244	0.4342967392354931	0.5618513667119024	0.45816628811620896	0.42710089829067627	0.7829070462929753	0.42564215208447265	0.20223231733074673	0.8776782534413816	0.4138949051684781	-0.011821661800261072	0.891540086582607	0.42155659908066195	-0.005211261681530504	0.9135251564566653	0.4429090928642775	0.1512153620515556	0.9657245495618774	0.07501031974490609	0.4401960717619876	0.5585716281317122	0.029519526244344993	0.4604992792264783	0.8059773377930903	0.0699284236577716	0.22778684576698432	0.8750231933515044	0.08353719965433228	0.07397936413004366	0.9028978803787976	0.08170395344588469	0.06385360183606666	0.9081077292928346	0.03641160493948925	0.16572310300447343	0.9303841151885883
66	1.11864406779661	0.3432164884424425	0.4385838291808069	1.0466147956149545	0.32165734280285907	0.4876433449339702	1.4717610417102687	0.3172162343202173	0.49201825211814343	1.8971408763899245	0.30657078554812905	0.33200247576577446	1.907565945408369	0.3723980806979373	0.34491742152773963	1.9129344162898665	0.29892551959993346	0.5876805271731522	2.004461645483627	0.14071903145696862	0.4792969578299572	1.0722128232093162	0.1400867987039374	0.518177869699749	1.482759868347341	0.15338931564064634	0.5246824407683905	1.9304391246985095	0.15788591209024408	0.3448730593254491	1.9165699458207612	0.099710715080478	0.3954515262746004	1.9318586694714637	0.16382275605567165	0.5515265024619618	1.977177789521724	0.23802739128308625	0.44410183655420055	0.4823526870891921	0.224313004910624	0.41725482034349887	0.24567267536024498	0.21525250497961693	0.36353894153835387	0.3555752246447108	0.39097389228061763	0.4343064125229573	0.5603749937401548	0.4578902451375043	0.4273672485005274	0.780681491043913	0.4278143986178182	0.20409152955590637	0.8708892817271947	0.4133690774948142	-0.011758891781479102	0.8802670044913352	0.422241705088421	-0.00466649138728363	0.8997762267795705	0.4449442859245743	0.1481854102386777	0.9565901622608745	0.07501036643612453	0.4403144718444192	0.5570922323916071	0.029329668688981278	0.4597702072975559	0.805188805920625	0.069949058908587	0.22833790093718045	0.8715773917527028	0.08311860547120972	0.07024590216186645	0.895076958161499	0.08152108665910905	0.059260856039482675	0.90227796369277	0.033070655810449295	0.15702016723773685	0.9225912919808227
67	1.1355932203389831	0.3437419506239073	0.4366169553868382	1.0450730651294693	0.3225413609618662	0.4903919416936265	1.4725294793486634	0.3181793936068167	0.49538366317446786	1.8991768137804435	0.3066092271499114	0.33215151794167996	1.9076545185980072	0.37241271861581915	0.34496450372676024	1.9129487932748612	0.3005277340455472	0.5848604183058198	2.005982982909149	0.14236431183593945	0.48449322751227636	1.073730337644391	0.13880113092863264	0.5178924726497172	1.483068003244645	0.15338877478115853	0.5247904892257379	1.930418772752007	0.15769640273237284	0.3444844137329828	1.9165687734163404	0.09969625833649547	0.3955974001248304	1.9318191247308538	0.16391946574512692	0.5522852297630224	1.977407445469428	0.23804919670013525	0.44409346496124946	0.4823726704237218	0.22427426845987314	0.41735082694483217	0.24555819449224922	0.21528047600360709	0.36370528172601607	0.35459945100721013	0.3907753402409947	0.43429421211927477	0.5585688134698916	0.4576079147510125	0.42757677634166685	0.7788511830652673	0.4309189208129734	0.20608238841919105	0.8621945244213695	0.4131356113687075	-0.011603041219331051	0.86882827506231	0.42275136752365305	-0.004340132260192134	0.8826165553118226	0.44876539847222485	0.1421532208925329	0.9452072465151463	0.0750029039045214	0.4405250268791252	0.5558655023902938	0.029342346879097734	0.4592474451924806	0.8024198330949981	0.06935323210221911	0.22910853435152598	0.8665589304704209	0.0835124267386124	0.0647754820649463	0.8858969853727388	0.0818197474750792	0.055992211453698294	0.895222729836269	0.030629810316872827	0.14801945861034094	0.9144922804991574
